<svg width="12" height="13" viewBox="0 0 12 13" fill="none" xmlns="http://www.w3.org/2000/svg">
<g clip-path="url(#clip0_1045_3376)">
<path d="M10 6V5C10 4.73478 9.89464 4.48043 9.70711 4.29289C9.51957 4.10536 9.26522 4 9 4H3C2.73478 4 2.48043 4.10536 2.29289 4.29289C2.10536 4.48043 2 4.73478 2 5V7.5C2 7.76522 2.10536 8.01957 2.29289 8.20711C2.48043 8.39464 2.73478 8.5 3 8.5H5" stroke="#171B34" stroke-linecap="round" stroke-linejoin="round"/>
<path d="M7 11V9C7 8.73478 7.10536 8.48043 7.29289 8.29289C7.48043 8.10536 7.73478 8 8 8C8.26522 8 8.51957 8.10536 8.70711 8.29289C8.89464 8.48043 9 8.73478 9 9V11" stroke="#171B34" stroke-linecap="round" stroke-linejoin="round"/>
<path d="M7 10H9" stroke="#171B34" stroke-linecap="round" stroke-linejoin="round"/>
<path d="M10.5 8V11" stroke="#171B34" stroke-linecap="round" stroke-linejoin="round"/>
</g>
<defs>
<clipPath id="clip0_1045_3376">
<rect width="12" height="12" fill="white" transform="translate(0 0.5)"/>
</clipPath>
</defs>
</svg>
